<mxfile host="app.diagrams.net" modified="2022-01-25T07:44:52.374Z" agent="5.0 (Windows NT 10.0; Win64; x64) AppleWebKit/537.36 (KHTML, like Gecko) Chrome/97.0.4692.99 Safari/537.36" etag="9d-jG6NC8UNdbTkAkiYD" version="16.4.6" type="github" pages="2">
  <diagram id="prtHgNgQTEPvFCAcTncT" name="Page-1">
    <mxGraphModel dx="1422" dy="802" grid="1" gridSize="10" guides="1" tooltips="1" connect="1" arrows="1" fold="1" page="1" pageScale="1" pageWidth="1169" pageHeight="827" math="0" shadow="0">
      <root>
        <mxCell id="0" />
        <mxCell id="1" parent="0" />
        <mxCell id="dNxyNK7c78bLwvsdeMH5-19" value="light.hall_controller" style="swimlane;html=1;childLayout=stackLayout;resizeParent=1;resizeParentMax=0;horizontal=0;startSize=20;horizontalStack=0;" parent="1" vertex="1">
          <mxGeometry x="120" y="120" width="1010" height="520" as="geometry" />
        </mxCell>
        <mxCell id="dNxyNK7c78bLwvsdeMH5-20" value="Normal" style="swimlane;html=1;startSize=20;horizontal=0;" parent="dNxyNK7c78bLwvsdeMH5-19" vertex="1">
          <mxGeometry x="20" width="990" height="130" as="geometry" />
        </mxCell>
        <mxCell id="lMSzDF5xeq6XN1XsUQEh-1" value="Motion Kelder" style="rounded=1;whiteSpace=wrap;html=1;arcSize=50;" vertex="1" parent="dNxyNK7c78bLwvsdeMH5-20">
          <mxGeometry x="50" y="50.000000000000114" width="120" height="30" as="geometry" />
        </mxCell>
        <mxCell id="dNxyNK7c78bLwvsdeMH5-21" value="Sleep" style="swimlane;html=1;startSize=20;horizontal=0;" parent="dNxyNK7c78bLwvsdeMH5-19" vertex="1">
          <mxGeometry x="20" y="130" width="990" height="130" as="geometry" />
        </mxCell>
        <mxCell id="dNxyNK7c78bLwvsdeMH5-22" value="Visitors" style="swimlane;html=1;startSize=20;horizontal=0;" parent="dNxyNK7c78bLwvsdeMH5-19" vertex="1">
          <mxGeometry x="20" y="260" width="990" height="130" as="geometry" />
        </mxCell>
        <mxCell id="dgQKwnoxhjaRGredtXuH-2" value="Horizontal Container" style="swimlane;horizontal=0;" parent="dNxyNK7c78bLwvsdeMH5-19" vertex="1">
          <mxGeometry x="20" y="390" width="990" height="130" as="geometry" />
        </mxCell>
      </root>
    </mxGraphModel>
  </diagram>
  <diagram id="cBR6qpUwEx_UAcRYlCrC" name="Page-2">
    <mxGraphModel dx="1673" dy="944" grid="1" gridSize="10" guides="1" tooltips="1" connect="1" arrows="1" fold="1" page="1" pageScale="1" pageWidth="1169" pageHeight="827" math="0" shadow="0">
      <root>
        <mxCell id="Jg-IG_TrCIRIpOXn6RAb-0" />
        <mxCell id="Jg-IG_TrCIRIpOXn6RAb-1" parent="Jg-IG_TrCIRIpOXn6RAb-0" />
        <mxCell id="c-10-gFGko6EJaznNluo-21" style="edgeStyle=orthogonalEdgeStyle;curved=1;rounded=0;orthogonalLoop=1;jettySize=auto;html=1;exitX=1;exitY=0.5;exitDx=0;exitDy=0;entryX=0;entryY=0.75;entryDx=0;entryDy=0;entryPerimeter=0;" edge="1" parent="Jg-IG_TrCIRIpOXn6RAb-1" source="c-10-gFGko6EJaznNluo-0" target="c-10-gFGko6EJaznNluo-19">
          <mxGeometry relative="1" as="geometry" />
        </mxCell>
        <mxCell id="c-10-gFGko6EJaznNluo-52" value="off" style="edgeStyle=orthogonalEdgeStyle;curved=1;rounded=0;orthogonalLoop=1;jettySize=auto;html=1;exitX=1;exitY=0.5;exitDx=0;exitDy=0;entryX=0;entryY=0.5;entryDx=0;entryDy=0;" edge="1" parent="Jg-IG_TrCIRIpOXn6RAb-1" source="c-10-gFGko6EJaznNluo-0" target="c-10-gFGko6EJaznNluo-51">
          <mxGeometry relative="1" as="geometry">
            <Array as="points">
              <mxPoint x="210" y="195" />
              <mxPoint x="410" y="195" />
              <mxPoint x="410" y="215" />
            </Array>
          </mxGeometry>
        </mxCell>
        <mxCell id="c-10-gFGko6EJaznNluo-0" value="sensor.hall_-1.motion" style="rounded=1;whiteSpace=wrap;html=1;arcSize=50;" vertex="1" parent="Jg-IG_TrCIRIpOXn6RAb-1">
          <mxGeometry x="90" y="156" width="120" height="30" as="geometry" />
        </mxCell>
        <mxCell id="c-10-gFGko6EJaznNluo-4" value="sensor.hall_0.motion" style="rounded=1;whiteSpace=wrap;html=1;arcSize=50;" vertex="1" parent="Jg-IG_TrCIRIpOXn6RAb-1">
          <mxGeometry x="90" y="287" width="120" height="30" as="geometry" />
        </mxCell>
        <mxCell id="c-10-gFGko6EJaznNluo-5" value="sensor.hall_1.motion" style="rounded=1;whiteSpace=wrap;html=1;arcSize=50;" vertex="1" parent="Jg-IG_TrCIRIpOXn6RAb-1">
          <mxGeometry x="90" y="397" width="120" height="30" as="geometry" />
        </mxCell>
        <mxCell id="c-10-gFGko6EJaznNluo-6" value="sensor.hall_2.motion" style="rounded=1;whiteSpace=wrap;html=1;arcSize=50;" vertex="1" parent="Jg-IG_TrCIRIpOXn6RAb-1">
          <mxGeometry x="90" y="550.0000000000001" width="120" height="30" as="geometry" />
        </mxCell>
        <mxCell id="c-10-gFGko6EJaznNluo-7" value="light.hall_-1_ON" style="rounded=1;whiteSpace=wrap;html=1;arcSize=50;" vertex="1" parent="Jg-IG_TrCIRIpOXn6RAb-1">
          <mxGeometry x="990" y="134" width="120" height="30" as="geometry" />
        </mxCell>
        <mxCell id="c-10-gFGko6EJaznNluo-8" value="light.hall_-1_OFF" style="rounded=1;whiteSpace=wrap;html=1;arcSize=50;" vertex="1" parent="Jg-IG_TrCIRIpOXn6RAb-1">
          <mxGeometry x="990" y="178" width="120" height="30" as="geometry" />
        </mxCell>
        <mxCell id="c-10-gFGko6EJaznNluo-9" value="light.hall_0_ON" style="rounded=1;whiteSpace=wrap;html=1;arcSize=50;" vertex="1" parent="Jg-IG_TrCIRIpOXn6RAb-1">
          <mxGeometry x="990" y="243" width="120" height="30" as="geometry" />
        </mxCell>
        <mxCell id="c-10-gFGko6EJaznNluo-10" value="light.hall_0_OFF" style="rounded=1;whiteSpace=wrap;html=1;arcSize=50;" vertex="1" parent="Jg-IG_TrCIRIpOXn6RAb-1">
          <mxGeometry x="990" y="309" width="120" height="30" as="geometry" />
        </mxCell>
        <mxCell id="c-10-gFGko6EJaznNluo-11" value="light.hall_1_ON" style="rounded=1;whiteSpace=wrap;html=1;arcSize=50;" vertex="1" parent="Jg-IG_TrCIRIpOXn6RAb-1">
          <mxGeometry x="990" y="353" width="120" height="30" as="geometry" />
        </mxCell>
        <mxCell id="c-10-gFGko6EJaznNluo-12" value="light.hall_1_OFF" style="rounded=1;whiteSpace=wrap;html=1;arcSize=50;" vertex="1" parent="Jg-IG_TrCIRIpOXn6RAb-1">
          <mxGeometry x="990" y="419" width="120" height="30" as="geometry" />
        </mxCell>
        <mxCell id="c-10-gFGko6EJaznNluo-13" value="light.hall_2_ON" style="rounded=1;whiteSpace=wrap;html=1;arcSize=50;" vertex="1" parent="Jg-IG_TrCIRIpOXn6RAb-1">
          <mxGeometry x="990" y="462" width="120" height="30" as="geometry" />
        </mxCell>
        <mxCell id="c-10-gFGko6EJaznNluo-14" value="light.hall_2_OFF" style="rounded=1;whiteSpace=wrap;html=1;arcSize=50;" vertex="1" parent="Jg-IG_TrCIRIpOXn6RAb-1">
          <mxGeometry x="990" y="528" width="120" height="30" as="geometry" />
        </mxCell>
        <mxCell id="c-10-gFGko6EJaznNluo-20" value="&amp;lt; ... Lux" style="edgeStyle=orthogonalEdgeStyle;curved=1;rounded=0;orthogonalLoop=1;jettySize=auto;html=1;exitX=1;exitY=0.5;exitDx=0;exitDy=0;entryX=0;entryY=0.25;entryDx=0;entryDy=0;entryPerimeter=0;" edge="1" parent="Jg-IG_TrCIRIpOXn6RAb-1" source="c-10-gFGko6EJaznNluo-15" target="c-10-gFGko6EJaznNluo-19">
          <mxGeometry relative="1" as="geometry" />
        </mxCell>
        <mxCell id="c-10-gFGko6EJaznNluo-15" value="sensor.hall_-1.lux" style="rounded=1;whiteSpace=wrap;html=1;arcSize=50;" vertex="1" parent="Jg-IG_TrCIRIpOXn6RAb-1">
          <mxGeometry x="90" y="90.00000000000011" width="120" height="30" as="geometry" />
        </mxCell>
        <mxCell id="c-10-gFGko6EJaznNluo-16" value="sensor.hall_0.lux" style="rounded=1;whiteSpace=wrap;html=1;arcSize=50;" vertex="1" parent="Jg-IG_TrCIRIpOXn6RAb-1">
          <mxGeometry x="90" y="221" width="120" height="30" as="geometry" />
        </mxCell>
        <mxCell id="c-10-gFGko6EJaznNluo-17" value="sensor.hall_1.lux" style="rounded=1;whiteSpace=wrap;html=1;arcSize=50;" vertex="1" parent="Jg-IG_TrCIRIpOXn6RAb-1">
          <mxGeometry x="90" y="331" width="120" height="30" as="geometry" />
        </mxCell>
        <mxCell id="c-10-gFGko6EJaznNluo-18" value="sensor.hall_2.lux" style="rounded=1;whiteSpace=wrap;html=1;arcSize=50;" vertex="1" parent="Jg-IG_TrCIRIpOXn6RAb-1">
          <mxGeometry x="90" y="484" width="120" height="30" as="geometry" />
        </mxCell>
        <mxCell id="c-10-gFGko6EJaznNluo-22" style="edgeStyle=orthogonalEdgeStyle;curved=1;rounded=0;orthogonalLoop=1;jettySize=auto;html=1;exitX=1;exitY=0.5;exitDx=0;exitDy=0;exitPerimeter=0;entryX=0;entryY=0.5;entryDx=0;entryDy=0;" edge="1" parent="Jg-IG_TrCIRIpOXn6RAb-1" source="c-10-gFGko6EJaznNluo-19" target="c-10-gFGko6EJaznNluo-7">
          <mxGeometry relative="1" as="geometry" />
        </mxCell>
        <mxCell id="c-10-gFGko6EJaznNluo-19" value="" style="shape=or;whiteSpace=wrap;html=1;" vertex="1" parent="Jg-IG_TrCIRIpOXn6RAb-1">
          <mxGeometry x="300" y="87" width="60" height="80" as="geometry" />
        </mxCell>
        <mxCell id="c-10-gFGko6EJaznNluo-39" style="edgeStyle=orthogonalEdgeStyle;curved=1;rounded=0;orthogonalLoop=1;jettySize=auto;html=1;exitX=1;exitY=0.5;exitDx=0;exitDy=0;entryX=0;entryY=0.75;entryDx=0;entryDy=0;entryPerimeter=0;" edge="1" parent="Jg-IG_TrCIRIpOXn6RAb-1" target="c-10-gFGko6EJaznNluo-42" source="c-10-gFGko6EJaznNluo-4">
          <mxGeometry relative="1" as="geometry">
            <mxPoint x="210" y="302" as="sourcePoint" />
          </mxGeometry>
        </mxCell>
        <mxCell id="c-10-gFGko6EJaznNluo-40" value="&amp;lt; ... Lux" style="edgeStyle=orthogonalEdgeStyle;curved=1;rounded=0;orthogonalLoop=1;jettySize=auto;html=1;entryX=0;entryY=0.25;entryDx=0;entryDy=0;entryPerimeter=0;exitX=1;exitY=0.5;exitDx=0;exitDy=0;" edge="1" parent="Jg-IG_TrCIRIpOXn6RAb-1" target="c-10-gFGko6EJaznNluo-42" source="c-10-gFGko6EJaznNluo-16">
          <mxGeometry relative="1" as="geometry">
            <mxPoint x="230" y="257" as="sourcePoint" />
          </mxGeometry>
        </mxCell>
        <mxCell id="c-10-gFGko6EJaznNluo-41" style="edgeStyle=orthogonalEdgeStyle;curved=1;rounded=0;orthogonalLoop=1;jettySize=auto;html=1;exitX=1;exitY=0.5;exitDx=0;exitDy=0;exitPerimeter=0;entryX=0;entryY=0.5;entryDx=0;entryDy=0;" edge="1" parent="Jg-IG_TrCIRIpOXn6RAb-1" source="c-10-gFGko6EJaznNluo-42" target="c-10-gFGko6EJaznNluo-9">
          <mxGeometry relative="1" as="geometry">
            <mxPoint x="990" y="286.0000000000001" as="targetPoint" />
          </mxGeometry>
        </mxCell>
        <mxCell id="c-10-gFGko6EJaznNluo-42" value="" style="shape=or;whiteSpace=wrap;html=1;" vertex="1" parent="Jg-IG_TrCIRIpOXn6RAb-1">
          <mxGeometry x="300" y="240" width="60" height="80" as="geometry" />
        </mxCell>
        <mxCell id="c-10-gFGko6EJaznNluo-43" style="edgeStyle=orthogonalEdgeStyle;curved=1;rounded=0;orthogonalLoop=1;jettySize=auto;html=1;exitX=1;exitY=0.5;exitDx=0;exitDy=0;entryX=0;entryY=0.75;entryDx=0;entryDy=0;entryPerimeter=0;" edge="1" parent="Jg-IG_TrCIRIpOXn6RAb-1" target="c-10-gFGko6EJaznNluo-46" source="c-10-gFGko6EJaznNluo-5">
          <mxGeometry relative="1" as="geometry">
            <mxPoint x="240" y="429" as="sourcePoint" />
          </mxGeometry>
        </mxCell>
        <mxCell id="c-10-gFGko6EJaznNluo-44" value="&amp;lt; ... Lux" style="edgeStyle=orthogonalEdgeStyle;curved=1;rounded=0;orthogonalLoop=1;jettySize=auto;html=1;exitX=1;exitY=0.5;exitDx=0;exitDy=0;entryX=0;entryY=0.25;entryDx=0;entryDy=0;entryPerimeter=0;" edge="1" parent="Jg-IG_TrCIRIpOXn6RAb-1" target="c-10-gFGko6EJaznNluo-46" source="c-10-gFGko6EJaznNluo-17">
          <mxGeometry relative="1" as="geometry">
            <mxPoint x="240" y="363.0000000000001" as="sourcePoint" />
          </mxGeometry>
        </mxCell>
        <mxCell id="c-10-gFGko6EJaznNluo-45" style="edgeStyle=orthogonalEdgeStyle;curved=1;rounded=0;orthogonalLoop=1;jettySize=auto;html=1;exitX=1;exitY=0.5;exitDx=0;exitDy=0;exitPerimeter=0;entryX=0;entryY=0.5;entryDx=0;entryDy=0;" edge="1" parent="Jg-IG_TrCIRIpOXn6RAb-1" source="c-10-gFGko6EJaznNluo-46" target="c-10-gFGko6EJaznNluo-11">
          <mxGeometry relative="1" as="geometry">
            <mxPoint x="1020" y="413.0000000000001" as="targetPoint" />
          </mxGeometry>
        </mxCell>
        <mxCell id="c-10-gFGko6EJaznNluo-46" value="" style="shape=or;whiteSpace=wrap;html=1;" vertex="1" parent="Jg-IG_TrCIRIpOXn6RAb-1">
          <mxGeometry x="300" y="415" width="60" height="80" as="geometry" />
        </mxCell>
        <mxCell id="c-10-gFGko6EJaznNluo-47" style="edgeStyle=orthogonalEdgeStyle;curved=1;rounded=0;orthogonalLoop=1;jettySize=auto;html=1;exitX=1;exitY=0.5;exitDx=0;exitDy=0;entryX=0;entryY=0.75;entryDx=0;entryDy=0;entryPerimeter=0;" edge="1" parent="Jg-IG_TrCIRIpOXn6RAb-1" target="c-10-gFGko6EJaznNluo-50" source="c-10-gFGko6EJaznNluo-6">
          <mxGeometry relative="1" as="geometry">
            <mxPoint x="260" y="570.5" as="sourcePoint" />
          </mxGeometry>
        </mxCell>
        <mxCell id="c-10-gFGko6EJaznNluo-48" value="&amp;lt; ... Lux" style="edgeStyle=orthogonalEdgeStyle;curved=1;rounded=0;orthogonalLoop=1;jettySize=auto;html=1;exitX=1;exitY=0.5;exitDx=0;exitDy=0;entryX=0;entryY=0.25;entryDx=0;entryDy=0;entryPerimeter=0;" edge="1" parent="Jg-IG_TrCIRIpOXn6RAb-1" target="c-10-gFGko6EJaznNluo-50" source="c-10-gFGko6EJaznNluo-18">
          <mxGeometry relative="1" as="geometry">
            <mxPoint x="260" y="504.5000000000001" as="sourcePoint" />
          </mxGeometry>
        </mxCell>
        <mxCell id="c-10-gFGko6EJaznNluo-49" style="edgeStyle=orthogonalEdgeStyle;curved=1;rounded=0;orthogonalLoop=1;jettySize=auto;html=1;exitX=1;exitY=0.5;exitDx=0;exitDy=0;exitPerimeter=0;entryX=0;entryY=0.5;entryDx=0;entryDy=0;" edge="1" parent="Jg-IG_TrCIRIpOXn6RAb-1" source="c-10-gFGko6EJaznNluo-50" target="c-10-gFGko6EJaznNluo-13">
          <mxGeometry relative="1" as="geometry">
            <mxPoint x="1040" y="554.5000000000001" as="targetPoint" />
          </mxGeometry>
        </mxCell>
        <mxCell id="c-10-gFGko6EJaznNluo-50" value="" style="shape=or;whiteSpace=wrap;html=1;" vertex="1" parent="Jg-IG_TrCIRIpOXn6RAb-1">
          <mxGeometry x="300" y="481" width="60" height="80" as="geometry" />
        </mxCell>
        <mxCell id="c-10-gFGko6EJaznNluo-53" style="edgeStyle=orthogonalEdgeStyle;curved=1;rounded=0;orthogonalLoop=1;jettySize=auto;html=1;exitX=1;exitY=0.5;exitDx=0;exitDy=0;entryX=0;entryY=0.5;entryDx=0;entryDy=0;" edge="1" parent="Jg-IG_TrCIRIpOXn6RAb-1" source="c-10-gFGko6EJaznNluo-51" target="c-10-gFGko6EJaznNluo-8">
          <mxGeometry relative="1" as="geometry" />
        </mxCell>
        <mxCell id="c-10-gFGko6EJaznNluo-51" value="Timer - 90sec" style="rounded=1;whiteSpace=wrap;html=1;arcSize=50;" vertex="1" parent="Jg-IG_TrCIRIpOXn6RAb-1">
          <mxGeometry x="420" y="200" width="120" height="30" as="geometry" />
        </mxCell>
        <mxCell id="c-10-gFGko6EJaznNluo-54" value="off" style="edgeStyle=orthogonalEdgeStyle;curved=1;rounded=0;orthogonalLoop=1;jettySize=auto;html=1;exitX=1;exitY=0.5;exitDx=0;exitDy=0;entryX=0;entryY=0.5;entryDx=0;entryDy=0;" edge="1" parent="Jg-IG_TrCIRIpOXn6RAb-1" target="c-10-gFGko6EJaznNluo-56" source="c-10-gFGko6EJaznNluo-4">
          <mxGeometry relative="1" as="geometry">
            <mxPoint x="210" y="317" as="sourcePoint" />
            <Array as="points">
              <mxPoint x="210" y="370" />
              <mxPoint x="390" y="370" />
              <mxPoint x="390" y="390" />
              <mxPoint x="450" y="390" />
            </Array>
          </mxGeometry>
        </mxCell>
        <mxCell id="c-10-gFGko6EJaznNluo-55" style="edgeStyle=orthogonalEdgeStyle;curved=1;rounded=0;orthogonalLoop=1;jettySize=auto;html=1;exitX=1;exitY=0.5;exitDx=0;exitDy=0;entryX=0;entryY=0.5;entryDx=0;entryDy=0;" edge="1" parent="Jg-IG_TrCIRIpOXn6RAb-1" source="c-10-gFGko6EJaznNluo-56" target="c-10-gFGko6EJaznNluo-10">
          <mxGeometry relative="1" as="geometry">
            <mxPoint x="990" y="357" as="targetPoint" />
            <Array as="points">
              <mxPoint x="765" y="341" />
              <mxPoint x="765" y="337" />
              <mxPoint x="990" y="337" />
            </Array>
          </mxGeometry>
        </mxCell>
        <mxCell id="c-10-gFGko6EJaznNluo-56" value="Timer - 90sec" style="rounded=1;whiteSpace=wrap;html=1;arcSize=50;" vertex="1" parent="Jg-IG_TrCIRIpOXn6RAb-1">
          <mxGeometry x="450" y="380" width="120" height="30" as="geometry" />
        </mxCell>
        <mxCell id="c-10-gFGko6EJaznNluo-64" value="off" style="edgeStyle=orthogonalEdgeStyle;curved=1;rounded=0;orthogonalLoop=1;jettySize=auto;html=1;exitX=1;exitY=0.5;exitDx=0;exitDy=0;entryX=0;entryY=0.5;entryDx=0;entryDy=0;" edge="1" parent="Jg-IG_TrCIRIpOXn6RAb-1" target="c-10-gFGko6EJaznNluo-66" source="c-10-gFGko6EJaznNluo-5">
          <mxGeometry relative="1" as="geometry">
            <mxPoint x="220" y="468.5" as="sourcePoint" />
            <Array as="points">
              <mxPoint x="210" y="469" />
              <mxPoint x="250" y="469" />
              <mxPoint x="250" y="377" />
              <mxPoint x="430" y="377" />
              <mxPoint x="430" y="397" />
              <mxPoint x="490" y="397" />
            </Array>
          </mxGeometry>
        </mxCell>
        <mxCell id="c-10-gFGko6EJaznNluo-65" style="edgeStyle=orthogonalEdgeStyle;curved=1;rounded=0;orthogonalLoop=1;jettySize=auto;html=1;exitX=1;exitY=0.5;exitDx=0;exitDy=0;entryX=0;entryY=0.5;entryDx=0;entryDy=0;" edge="1" parent="Jg-IG_TrCIRIpOXn6RAb-1" source="c-10-gFGko6EJaznNluo-66" target="c-10-gFGko6EJaznNluo-12">
          <mxGeometry relative="1" as="geometry">
            <mxPoint x="1029.9999999999995" y="331" as="targetPoint" />
            <Array as="points">
              <mxPoint x="610" y="348" />
              <mxPoint x="805" y="348" />
              <mxPoint x="805" y="344" />
              <mxPoint x="1030" y="344" />
              <mxPoint x="1030" y="434" />
            </Array>
          </mxGeometry>
        </mxCell>
        <mxCell id="c-10-gFGko6EJaznNluo-66" value="Timer - 90sec" style="rounded=1;whiteSpace=wrap;html=1;arcSize=50;" vertex="1" parent="Jg-IG_TrCIRIpOXn6RAb-1">
          <mxGeometry x="465" y="531" width="120" height="30" as="geometry" />
        </mxCell>
        <mxCell id="c-10-gFGko6EJaznNluo-67" value="off" style="edgeStyle=orthogonalEdgeStyle;curved=1;rounded=0;orthogonalLoop=1;jettySize=auto;html=1;exitX=1;exitY=0.5;exitDx=0;exitDy=0;entryX=0;entryY=0.5;entryDx=0;entryDy=0;" edge="1" parent="Jg-IG_TrCIRIpOXn6RAb-1" target="c-10-gFGko6EJaznNluo-69" source="c-10-gFGko6EJaznNluo-6">
          <mxGeometry relative="1" as="geometry">
            <mxPoint x="250" y="610" as="sourcePoint" />
            <Array as="points">
              <mxPoint x="250" y="565" />
              <mxPoint x="250" y="678" />
              <mxPoint x="430" y="678" />
              <mxPoint x="430" y="698" />
              <mxPoint x="490" y="698" />
            </Array>
          </mxGeometry>
        </mxCell>
        <mxCell id="c-10-gFGko6EJaznNluo-68" style="edgeStyle=orthogonalEdgeStyle;curved=1;rounded=0;orthogonalLoop=1;jettySize=auto;html=1;exitX=1;exitY=0.5;exitDx=0;exitDy=0;entryX=0;entryY=0.75;entryDx=0;entryDy=0;" edge="1" parent="Jg-IG_TrCIRIpOXn6RAb-1" source="c-10-gFGko6EJaznNluo-69" target="c-10-gFGko6EJaznNluo-14">
          <mxGeometry relative="1" as="geometry">
            <mxPoint x="1029.9999999999995" y="632" as="targetPoint" />
            <Array as="points">
              <mxPoint x="610" y="649" />
              <mxPoint x="805" y="649" />
              <mxPoint x="805" y="645" />
              <mxPoint x="1030" y="645" />
              <mxPoint x="1030" y="550" />
            </Array>
          </mxGeometry>
        </mxCell>
        <mxCell id="c-10-gFGko6EJaznNluo-69" value="Timer - 90sec" style="rounded=1;whiteSpace=wrap;html=1;arcSize=50;" vertex="1" parent="Jg-IG_TrCIRIpOXn6RAb-1">
          <mxGeometry x="490" y="688" width="120" height="30" as="geometry" />
        </mxCell>
      </root>
    </mxGraphModel>
  </diagram>
</mxfile>
